<?xml version="1.0" standalone="no"?>
<!DOCTYPE svg PUBLIC "-//W3C//DTD SVG 20010904//EN"
 "http://www.w3.org/TR/2001/REC-SVG-20010904/DTD/svg10.dtd">
<svg version="1.0" xmlns="http://www.w3.org/2000/svg"
 width="512.000000pt" height="512.000000pt" viewBox="0 0 512.000000 512.000000"
 preserveAspectRatio="xMidYMid meet">
<metadata>
Created by potrace 1.14, written by Peter Selinger 2001-2017
</metadata>
<g transform="translate(0.000000,512.000000) scale(0.100000,-0.100000)"
fill="#000000" stroke="none">
<path d="M2330 5084 c-461 -42 -966 -247 -1335 -542 -424 -340 -733 -827 -868
-1367 -58 -232 -71 -349 -71 -615 0 -266 13 -383 71 -615 83 -333 240 -661
443 -929 390 -514 944 -846 1598 -958 173 -30 588 -32 757 -5 844 137 1529
645 1891 1402 113 237 190 488 230 750 26 167 26 542 1 705 -132 847 -618
1533 -1352 1907 -229 117 -453 191 -735 243 -92 17 -162 22 -350 25 -129 1
-255 1 -280 -1z m478 -255 c426 -46 831 -212 1167 -478 94 -74 267 -248 344
-345 257 -326 412 -683 477 -1106 14 -85 18 -174 18 -340 0 -299 -26 -471
-110 -731 -264 -817 -980 -1416 -1832 -1533 -145 -21 -480 -21 -618 -1 -603
85 -1136 397 -1493 872 -232 308 -376 655 -437 1053 -22 143 -26 510 -6 645
61 418 204 770 445 1092 90 119 277 312 382 395 335 263 739 430 1150 476 114
13 399 14 513 1z"/>
<path d="M1389 4236 c-170 -134 -279 -329 -224 -402 13 -18 17 -16 83 52 38
39 87 103 110 142 42 73 104 239 92 247 -3 2 -31 -15 -61 -39z"/>
<path d="M1810 4271 c-8 -5 -46 -16 -84 -25 -95 -24 -194 -76 -254 -134 -52
-50 -87 -106 -77 -122 8 -13 101 17 174 57 110 59 287 205 275 225 -6 10 -14
9 -34 -1z"/>
<path d="M3296 4272 c-7 -11 1 -21 74 -83 118 -102 250 -179 355 -205 18 -4
25 -2 25 7 -1 26 -58 106 -102 142 -56 46 -176 103 -247 117 -31 7 -64 16 -73
21 -22 11 -25 11 -32 1z"/>
<path d="M3690 4269 c0 -24 34 -127 60 -180 40 -84 93 -158 154 -219 66 -64
80 -60 80 23 0 73 -43 155 -128 244 -71 76 -166 151 -166 132z"/>
<path d="M1053 3951 c-92 -106 -148 -224 -159 -330 -7 -63 13 -121 42 -121 8
0 27 -11 42 -25 22 -21 33 -24 67 -18 77 11 179 77 298 191 60 59 60 72 2 72
-85 0 -213 -57 -269 -119 -11 -11 -22 -21 -26 -21 -17 0 -19 61 -3 97 40 95
77 303 56 316 -5 3 -27 -16 -50 -42z"/>
<path d="M4030 3951 c0 -45 35 -199 59 -264 15 -38 14 -47 -4 -47 -8 0 -15 -7
-15 -15 0 -17 -16 -20 -25 -5 -12 19 -87 62 -143 81 -57 20 -147 26 -156 10
-11 -17 183 -185 258 -223 52 -27 126 -40 145 -25 17 14 31 -4 77 -101 50
-107 46 -118 -22 -47 -24 24 -69 57 -101 73 -64 33 -143 51 -143 33 0 -22 120
-178 186 -242 69 -66 126 -96 163 -84 12 4 21 0 26 -12 11 -29 55 -246 51
-251 -8 -8 -26 9 -26 24 0 29 -49 110 -91 153 -43 43 -124 91 -154 91 -8 0
-15 -1 -15 -3 0 -12 86 -200 115 -253 60 -106 130 -173 168 -158 11 4 15 -10
19 -68 3 -40 4 -100 2 -133 -1 -33 -3 -68 -3 -78 -1 -29 -21 -8 -21 22 0 82
-77 225 -148 275 -21 14 -41 26 -45 26 -11 0 -8 -47 9 -139 34 -189 86 -300
151 -331 18 -8 33 -22 33 -30 0 -8 -13 -62 -30 -120 -16 -58 -30 -106 -30
-107 0 -2 -4 -3 -9 -3 -4 0 -11 36 -14 79 -6 94 -41 182 -93 232 -18 18 -36
30 -38 28 -3 -3 -10 -53 -15 -111 -18 -183 25 -367 87 -376 18 -3 22 -8 16
-25 -18 -58 -130 -257 -145 -257 -12 0 -11 5 7 48 22 51 29 170 15 229 -15 58
-60 138 -71 126 -5 -4 -25 -62 -45 -128 -30 -99 -36 -136 -37 -216 -1 -100 13
-159 38 -159 8 0 14 -6 14 -14 0 -13 -122 -158 -174 -205 -28 -26 -48 -21 -28
7 30 41 64 127 74 187 9 55 8 75 -7 130 -9 36 -21 65 -26 65 -14 0 -115 -180
-151 -266 -39 -97 -46 -196 -14 -219 16 -12 17 -17 6 -30 -33 -40 -234 -165
-246 -153 -3 4 15 31 40 59 65 72 106 172 106 259 0 84 -10 82 -113 -25 -52
-54 -114 -130 -136 -168 -45 -74 -69 -161 -50 -183 6 -7 8 -18 5 -23 -7 -11
-158 -71 -181 -71 -30 0 -17 50 26 98 23 26 49 63 59 82 20 39 36 123 26 139
-4 5 -28 -5 -58 -25 -29 -19 -56 -34 -60 -34 -5 0 -8 58 -8 128 0 145 -3 152
-75 171 -220 57 -668 60 -903 6 -102 -24 -102 -24 -102 -186 l0 -138 -65 40
c-79 47 -98 50 -89 12 21 -95 57 -163 118 -222 21 -20 36 -45 36 -58 0 -13 -2
-23 -3 -23 -23 0 -227 78 -227 87 0 2 7 11 15 19 22 22 9 87 -31 161 -48 87
-240 293 -258 276 -13 -13 -5 -103 15 -169 23 -76 52 -125 98 -168 17 -17 31
-33 31 -38 0 -17 -28 -6 -105 43 -142 91 -214 153 -155 134 16 -5 22 0 31 22
16 40 5 110 -31 199 -34 86 -136 264 -150 264 -16 0 -34 -83 -33 -155 1 -81
23 -152 65 -213 31 -45 31 -65 1 -41 -9 8 -58 61 -110 119 l-93 105 26 20 c52
41 53 175 4 350 -51 179 -54 182 -97 86 -36 -81 -42 -196 -14 -275 22 -62 20
-80 -3 -55 -17 16 -121 214 -130 246 -6 17 -2 22 16 25 16 2 31 20 51 60 26
49 30 71 34 165 7 132 -4 263 -20 263 -17 -1 -72 -77 -99 -136 -19 -41 -23
-66 -23 -152 0 -56 -3 -102 -7 -102 -4 0 -12 19 -18 43 -6 23 -20 71 -30 107
-10 36 -20 83 -24 105 -5 37 -3 41 27 55 66 31 119 147 151 335 27 155 20 166
-60 87 -61 -60 -101 -132 -117 -213 -7 -34 -18 -64 -25 -67 -9 -3 -12 32 -12
142 l0 146 23 -5 c30 -8 96 40 137 100 56 82 151 297 137 311 -12 12 -90 -29
-136 -71 -53 -49 -100 -115 -112 -161 -6 -19 -15 -34 -21 -34 -11 0 -11 4 18
140 8 41 18 87 21 103 6 32 22 45 33 26 7 -10 16 -10 52 0 33 10 63 33 128 99
80 82 170 200 170 223 0 17 -79 0 -140 -31 -50 -26 -118 -85 -154 -135 -8 -11
-17 -18 -20 -15 -7 8 14 62 57 149 41 80 43 89 24 72 -7 -6 -33 -51 -56 -101
-47 -98 -68 -116 -54 -47 10 53 7 262 -4 301 -5 16 -14 31 -19 33 -11 4 -61
-97 -88 -177 -27 -80 -40 -195 -27 -246 15 -57 38 -93 67 -104 l22 -9 -23 -88
c-13 -48 -26 -105 -30 -125 -9 -54 -25 -47 -25 12 0 93 -65 313 -98 334 -5 3
-18 -36 -30 -87 -42 -173 -23 -347 45 -427 28 -32 41 -40 58 -36 22 6 22 6 22
-149 0 -85 -3 -155 -7 -155 -4 0 -12 24 -19 54 -24 107 -151 336 -187 336 -21
0 -20 -225 1 -246 8 -9 15 -24 15 -35 0 -28 46 -137 75 -180 27 -38 98 -84
115 -74 5 3 10 15 10 26 0 11 5 17 10 14 6 -3 10 -19 10 -35 0 -15 14 -81 30
-145 29 -111 32 -153 6 -111 -64 110 -232 286 -271 286 -19 0 -20 -43 -1 -59
8 -7 17 -28 21 -49 23 -125 127 -288 215 -336 37 -20 100 -31 100 -17 0 30 24
4 52 -56 18 -38 52 -101 76 -141 24 -41 41 -76 37 -80 -3 -3 -29 19 -58 49
-29 31 -82 77 -118 102 -73 51 -196 113 -206 103 -8 -7 28 -81 75 -155 48 -74
151 -175 211 -205 58 -30 135 -35 161 -11 15 14 21 9 68 -48 28 -34 76 -87
106 -117 81 -79 74 -94 -16 -37 -104 66 -356 145 -373 117 -9 -14 144 -164
213 -208 71 -46 169 -82 221 -82 51 0 101 21 101 42 0 10 2 18 5 18 4 0 47
-30 98 -66 51 -37 120 -80 155 -97 34 -17 62 -38 62 -45 0 -10 -6 -12 -17 -7
-112 47 -171 58 -321 63 -94 2 -158 0 -164 -6 -14 -14 126 -104 219 -140 111
-43 197 -57 267 -42 62 13 106 42 106 71 0 23 1 23 48 3 20 -9 73 -29 117 -45
61 -21 81 -33 83 -49 3 -18 -2 -20 -45 -20 -105 -1 -331 -58 -340 -87 -2 -5
29 -20 69 -32 40 -13 86 -29 101 -37 18 -9 63 -14 123 -14 l94 0 0 -100 0
-100 84 0 c76 0 86 2 100 22 9 12 16 42 16 65 0 34 4 43 18 44 9 0 158 1 330
1 331 1 340 0 326 -44 -9 -28 7 -65 32 -77 14 -6 58 -11 99 -11 l75 0 0 100 0
100 88 0 c48 0 92 4 98 8 5 5 49 21 97 37 48 15 86 32 84 38 -9 27 -240 87
-334 87 -28 0 -33 4 -33 23 0 18 11 26 68 46 37 13 85 32 106 42 47 23 60 24
53 5 -6 -14 23 -46 58 -64 11 -5 46 -13 77 -17 101 -13 259 38 396 127 80 52
81 68 5 69 -156 2 -228 -4 -293 -22 -122 -33 -133 -21 -35 37 36 21 93 60 127
87 47 38 63 46 69 36 5 -8 9 -17 9 -20 0 -13 53 -29 96 -29 57 0 137 28 216
76 71 43 222 188 215 207 -12 35 -271 -44 -374 -114 -23 -16 -46 -29 -52 -29
-20 0 -11 19 20 42 17 13 65 65 107 116 66 82 77 92 88 77 18 -25 101 -22 155
5 95 48 192 152 263 281 55 101 50 107 -47 58 -89 -45 -165 -100 -229 -164
-32 -32 -60 -56 -63 -53 -3 2 25 65 63 139 37 74 68 135 69 137 0 2 9 -2 20
-8 61 -38 205 77 268 214 20 41 40 98 47 127 7 28 18 53 25 56 18 7 17 63 -1
63 -19 0 -122 -86 -170 -142 -21 -23 -54 -69 -73 -100 -33 -54 -53 -72 -53
-48 0 5 9 42 19 82 11 40 25 99 31 131 10 48 14 56 26 46 22 -18 58 -3 104 44
46 48 72 99 95 185 8 31 19 58 25 60 16 6 13 242 -2 242 -33 0 -152 -204 -183
-312 -9 -32 -20 -58 -25 -58 -5 0 -9 65 -9 144 0 139 0 144 20 139 33 -9 91
62 112 135 24 88 23 237 -4 332 -11 41 -24 78 -28 83 -12 12 -61 -109 -82
-202 -10 -47 -19 -114 -19 -148 0 -35 -4 -63 -8 -63 -5 0 -14 33 -21 73 -7 39
-22 100 -32 134 -24 77 -24 83 0 83 27 0 59 48 72 108 12 60 -1 170 -32 259
-20 59 -76 163 -88 163 -13 0 -31 -116 -31 -207 0 -50 6 -111 15 -139 20 -67
2 -82 -25 -20 -11 26 -20 51 -20 54 0 4 -18 38 -40 76 -46 78 -48 86 -19 86
14 0 25 11 36 37 38 93 -26 270 -151 415 -22 26 -44 48 -48 48 -5 0 -8 -22 -8
-49z m-1264 -2596 c148 -15 272 -33 285 -41 5 -3 8 -25 7 -50 -1 -46 -1 -46
-32 -40 -217 39 -643 39 -887 0 l-40 -7 3 49 3 49 60 12 c75 15 320 40 400 42
33 0 123 -6 201 -14z m154 -170 c69 -9 129 -20 134 -25 22 -22 -10 -25 -111
-12 -198 27 -720 18 -825 -14 -13 -4 -18 0 -18 14 0 17 11 21 98 32 267 32
485 34 722 5z m-10 -86 c114 -12 150 -22 150 -40 0 -8 -18 -10 -62 -5 -212 21
-278 26 -414 26 -119 0 -402 -20 -467 -33 -6 -1 -12 5 -14 14 -5 21 11 25 157
38 63 6 131 13 150 15 61 7 391 -2 500 -15z m58 -90 l92 -12 -2 -291 -3 -291
-42 -3 -43 -3 0 49 c0 38 -5 55 -25 76 -13 14 -33 26 -45 26 -19 0 -20 5 -20
188 0 133 -4 192 -12 200 -17 17 -559 17 -576 0 -8 -8 -12 -67 -12 -200 l0
-188 -23 0 c-43 0 -67 -34 -67 -95 l0 -55 -45 0 -45 0 0 294 0 294 98 11 c53
6 111 13 127 15 61 9 553 -3 643 -15z m-130 -264 l2 -181 -262 1 -263 0 -2
170 c-1 110 2 174 9 182 8 11 64 13 262 11 l251 -3 3 -180z"/>
<path d="M2502 879 c-37 -24 -72 -85 -72 -124 0 -14 9 -44 20 -66 58 -114 220
-104 266 16 21 56 9 107 -33 150 -51 50 -124 60 -181 24z m137 -13 c60 -32 85
-124 48 -180 -43 -65 -148 -74 -199 -17 -94 105 26 261 151 197z"/>
<path d="M2516 814 c-66 -67 8 -180 94 -144 63 26 78 87 34 139 -35 41 -89 43
-128 5z"/>
<path d="M1440 3951 c-83 -26 -220 -130 -220 -167 0 -22 64 -27 129 -10 97 25
316 146 308 170 -4 13 -180 18 -217 7z"/>
<path d="M3498 3954 c-10 -3 -18 -9 -18 -13 0 -9 127 -90 198 -125 103 -52
242 -70 242 -32 0 21 -102 112 -161 142 -46 24 -68 28 -149 30 -52 2 -103 0
-112 -2z"/>
<path d="M1119 3713 c-13 -16 -12 -17 4 -4 9 7 17 15 17 17 0 8 -8 3 -21 -13z"/>
<path d="M1660 3454 c-68 -18 -130 -54 -165 -95 -92 -110 -157 -364 -158 -619
-1 -147 18 -212 80 -272 68 -66 93 -71 408 -75 154 -2 290 -6 303 -8 20 -5 22
-11 22 -61 0 -31 -7 -71 -16 -90 -30 -64 -31 -64 -458 -64 l-386 0 -5 -22
c-27 -113 -71 -407 -64 -426 l9 -23 448 3 447 3 67 33 c75 37 126 89 163 168
84 177 132 536 91 676 -20 70 -72 129 -138 159 -51 23 -64 24 -344 29 -226 4
-295 8 -307 19 -40 33 -5 175 49 199 17 9 138 12 398 12 l374 0 16 68 c36 153
76 348 76 374 l0 28 -427 -1 c-344 0 -439 -3 -483 -15z"/>
<path d="M2770 3463 c0 -5 -54 -393 -119 -863 -79 -572 -116 -862 -110 -877 8
-22 13 -23 138 -23 114 0 131 2 139 18 5 9 24 128 43 265 l33 248 140 -3 140
-3 113 -235 c61 -129 119 -247 127 -262 l15 -28 181 0 c173 0 181 1 188 21 6
15 -22 79 -115 262 -67 133 -123 248 -123 255 0 6 9 12 20 12 44 0 131 43 175
86 86 87 129 212 170 499 36 243 33 421 -6 506 -15 32 -40 66 -58 79 -69 48
-91 50 -608 50 -265 0 -483 -3 -483 -7z m864 -479 c9 -8 16 -19 16 -24 0 -29
-33 -240 -41 -267 -20 -63 -23 -63 -351 -63 -163 0 -299 3 -301 8 -6 9 40 339
48 352 4 6 126 10 310 10 263 0 306 -2 319 -16z"/>
</g>
</svg>
